<svg width="126" height="54" viewBox="0 0 126 54" fill="none" xmlns="http://www.w3.org/2000/svg">
<g clip-path="url(#clip0_307_120)">
<path d="M108.922 5.93064C102.897 5.93064 98.8407 10.5738 98.8407 16.868C98.8407 23.1623 102.897 27.7944 108.922 27.7944C114.946 27.7944 119.013 23.1956 119.013 16.868C119.013 10.5405 114.957 5.93064 108.922 5.93064ZM108.922 33.6897C99.3218 33.6897 91.854 26.9522 91.854 16.868C91.854 6.78391 99.3218 0.0463867 108.922 0.0463867C118.521 0.0463867 126.033 6.7285 126.033 16.8237C126.033 26.9189 118.532 33.6343 108.922 33.6343V33.6897ZM95.8011 0.212602H88.2459L79.7723 14.1531L71.3643 0.223694H63.7107L76.2516 20.7577V33.4238H83.2383V20.7577L95.8011 0.212602ZM55.3464 10.74L51.2025 21.2785H59.5012L55.3464 10.74ZM64.3011 33.4127L61.8519 27.1627H48.8408L46.3917 33.4127H39.5363L52.5583 0.168267H58.1454L71.1565 33.4127H64.3011ZM37.7869 0.168267H30.2317L18.8825 23.1513L7.51145 0.223694H0V33.4681H6.98662V14.0755L16.7723 33.4681H21.0692L30.844 14.0755V33.4681H37.8306L37.7869 0.168267Z" fill="white"/>
</g>
<defs>
<clipPath id="clip0_307_120">
<rect width="126" height="54" fill="white"/>
</clipPath>
</defs>
</svg>
